<?xml version="1.0" encoding="utf-8"?>
<!-- Generator: Adobe Illustrator 22.1.0, SVG Export Plug-In . SVG Version: 6.00 Build 0)  -->
<svg version="1.1" id="Layer_1" xmlns="http://www.w3.org/2000/svg" xmlns:xlink="http://www.w3.org/1999/xlink" x="0px" y="0px"
	 viewBox="0 0 16.5 20" style="enable-background:new 0 0 16.5 20;" xml:space="preserve">
<style type="text/css">
	.st0{fill:#8D3324;}
	.st1{fill:#E05243;}
	.st2{fill:#5E2019;}
	.st3{fill:#F2B0A9;}
</style>
<g>
	<polygon class="st0" points="1.4,3.5 0,4.2 0,15.9 1.4,16.5 4.6,10 	"/>
	<polygon class="st1" points="8.2,14.8 1.4,16.5 1.4,3.5 8.2,5.2 11.6,10 	"/>
	<polygon class="st0" points="8.2,14.8 15.2,16.5 16.4,10.1 15.2,3.5 8.2,5.2 	"/>
	<polygon class="st1" points="15.2,3.5 16.5,4.2 16.5,15.9 15.2,16.5 	"/>
	<polygon class="st0" points="5.2,12.1 8.2,12.6 10.6,10 8.2,7.5 5.2,7.8 	"/>
	<polygon class="st2" points="11.3,5.8 8.2,6.3 5.2,5.8 8.2,0 	"/>
	<polygon class="st3" points="11.3,14.2 8.2,13.6 5.2,14.2 8.2,20 	"/>
	<polygon class="st1" points="11.3,5.8 8.2,5.1 8.2,0 11.3,1.5 	"/>
	<polygon class="st0" points="5.2,5.8 8.2,5.1 8.2,0 5.2,1.5 	"/>
	<polygon class="st1" points="8.2,20 11.3,18.5 11.3,14.2 8.2,14.9 	"/>
	<polygon class="st0" points="8.2,20 5.2,18.5 5.2,14.2 8.2,14.9 	"/>
	<polygon class="st1" points="11.3,12.1 8.2,12.6 8.2,7.5 11.3,7.8 	"/>
</g>
</svg>
